<svg xmlns="http://www.w3.org/2000/svg" viewBox="0 0 300 300" class="iconAbove"><path fill="transparent" class="logo-background-square" d="M0 0h300v300H0z"/><path d="M20 178.849v38.942h7.351v-14.266h8.663c7.192 0 12.478-4.887 12.478-12.358 0-7.43-5.127-12.318-12.478-12.318zm7.351 6.874H35.3c3.497 0 5.841 2.106 5.841 5.444s-2.344 5.484-5.841 5.484H27.35zm32.267 4.45h-6.914v27.618h6.993v-15.497c0-3.895 2.583-5.762 6.12-5.762h4.133v-6.477h-2.782c-3.497 0-5.841 1.072-6.914 4.132h-.636zm12.795 13.79c0 8.702 6.318 14.583 14.465 14.583 8.106 0 14.464-5.881 14.464-14.583 0-8.663-6.358-14.544-14.464-14.544-8.147 0-14.465 5.88-14.465 14.544zm6.994 0c0-4.888 3.02-8.107 7.47-8.107 4.451 0 7.431 3.219 7.431 8.107 0 4.927-2.98 8.146-7.43 8.146-4.451 0-7.471-3.219-7.471-8.146zm27.021-25.114v38.942h25.392v-6.795h-18.04v-32.147zm28.055 25.114c0 8.702 6.358 14.583 14.464 14.583 8.106 0 14.464-5.881 14.464-14.583 0-8.663-6.358-14.544-14.464-14.544-8.106 0-14.464 5.88-14.464 14.544zm6.993 0c0-4.888 3.02-8.107 7.471-8.107 4.45 0 7.47 3.219 7.47 8.107 0 4.927-3.02 8.146-7.47 8.146-4.45 0-7.47-3.219-7.47-8.146zm25.273 0c0 8.583 6.358 14.583 14.345 14.583 7.749 0 12.597-4.292 13.908-10.57l-6.874-1.709c-.755 3.497-2.702 5.842-6.914 5.842-4.49 0-7.471-3.219-7.471-8.146 0-4.888 3.258-8.107 7.47-8.107 4.213 0 6.398 2.663 6.915 5.881l6.874-1.748c-1.43-6.318-6.238-10.57-13.908-10.57-7.987 0-14.345 6-14.345 14.544zm61.513-13.79h-9.775l-11.246 9.458h-.675V178.85h-6.994v38.942h6.994v-9.537l4.252-3.497 8.9 13.034h8.107l-12.08-17.206zm1.788 13.59c0 8.544 5.961 14.783 14.187 14.783 7.39 0 10.65-3.894 12.517-6.795l-6-3.417c-.954 1.947-2.742 4.093-6.637 4.093-3.973 0-6.596-2.822-6.755-6.398h20.385v-2.702c0-8.305-5.603-13.908-13.63-13.908-8.106 0-14.067 6-14.067 14.345zm7.352-2.622c.437-3.298 2.742-5.603 6.676-5.603 3.616 0 6.08 2.226 6.437 5.603zm32.266-10.967h-6.914v27.617h7.034v-15.497c0-3.895 2.543-5.762 6.12-5.762H280v-6.477h-2.782c-3.496 0-5.841 1.072-6.874 4.132h-.676z" fill="#2e3034"/><g fill="#488eff" transform="matrix(.89069 0 0 .89069 105.466 81.454)"><path d="M43.198 52.033a22.397 22.397 0 0113.728.045l-.063-32.47h11.764L50.98 0 31.373 19.608h11.765l.06 32.425zm29.076-30.465l8.413 8.223-22.241 22.846a22.65 22.65 0 0110.569 8.823l21.49-22.076 8.414 8.223L100 21.568H72.274zM41.553 52.637L19.312 29.791l8.414-8.223H0l1.082 26.038 8.414-8.223 21.49 22.077a22.635 22.635 0 0110.567-8.823z"/><circle cx="50" cy="73.529" r="15.61"/></g></svg>
